<svg width="22" height="22" viewBox="0 0 22 22" fill="none" xmlns="http://www.w3.org/2000/svg">
<path d="M3.48661 5.53586H2.12054C1.93938 5.53586 1.76565 5.4639 1.63756 5.3358C1.50946 5.20771 1.4375 5.03398 1.4375 4.85282C1.4375 4.67167 1.50946 4.49794 1.63756 4.36984C1.76565 4.24175 1.93938 4.16979 2.12054 4.16979H7.58482V2.11931C7.58482 1.93816 7.65678 1.76443 7.78488 1.63634C7.91297 1.50824 8.0867 1.43628 8.26786 1.43628H13.7321C13.9133 1.43628 14.087 1.50824 14.2151 1.63634C14.3432 1.76443 14.4152 1.93816 14.4152 2.11931V4.16979H19.8795C20.0606 4.16979 20.2344 4.24175 20.3624 4.36984C20.4905 4.49794 20.5625 4.67167 20.5625 4.85282C20.5625 5.03398 20.4905 5.20771 20.3624 5.3358C20.2344 5.4639 20.0606 5.53586 19.8795 5.53586H18.5134V19.8796C18.5134 20.0608 18.4414 20.2345 18.3133 20.3626C18.1852 20.4907 18.0115 20.5626 17.8304 20.5626H4.16964C3.98849 20.5626 3.81476 20.4907 3.68666 20.3626C3.55857 20.2345 3.48661 20.0608 3.48661 19.8796V5.53586ZM13.0491 4.16979V2.80372H8.95089V4.16979H13.0491ZM4.85268 19.1966H17.1473V5.53586H4.85268V19.1966ZM8.95089 16.4644C8.76974 16.4644 8.59601 16.3925 8.46791 16.2644C8.33982 16.1363 8.26786 15.9625 8.26786 15.7814V8.95104C8.26786 8.76989 8.33982 8.59615 8.46791 8.46806C8.59601 8.33996 8.76974 8.268 8.95089 8.268C9.13205 8.268 9.30578 8.33996 9.43387 8.46806C9.56197 8.59615 9.63393 8.76989 9.63393 8.95104V15.7814C9.63393 15.9625 9.56197 16.1363 9.43387 16.2644C9.30578 16.3925 9.13205 16.4644 8.95089 16.4644ZM13.0491 16.4644C12.868 16.4644 12.6942 16.3925 12.5661 16.2644C12.438 16.1363 12.3661 15.9625 12.3661 15.7814V8.95104C12.3661 8.76989 12.438 8.59615 12.5661 8.46806C12.6942 8.33996 12.868 8.268 13.0491 8.268C13.2303 8.268 13.404 8.33996 13.5321 8.46806C13.6602 8.59615 13.7321 8.76989 13.7321 8.95104V15.7814C13.7321 15.9625 13.6602 16.1363 13.5321 16.2644C13.404 16.3925 13.2303 16.4644 13.0491 16.4644Z" fill="#B2B7BB"/>
</svg>
