<svg width="22" height="22" viewBox="0 0 22 22" fill="none" xmlns="http://www.w3.org/2000/svg">
<g clip-path="url(#clip0_149_69)">
<path d="M18.8437 5.37201L10.1555 14.0602C9.29031 14.9254 6.72207 15.3261 6.14832 14.7523C5.57457 14.1786 5.96618 11.6104 6.83136 10.7452L15.5287 2.04787C15.7432 1.81388 16.0028 1.62578 16.2921 1.49491C16.5812 1.36404 16.894 1.29309 17.2113 1.28641C17.5286 1.27973 17.8441 1.33742 18.1385 1.456C18.433 1.57459 18.7004 1.75163 18.9245 1.97639C19.1486 2.20116 19.3249 2.469 19.4427 2.76376C19.5604 3.05853 19.6174 3.37409 19.6098 3.69143C19.6022 4.00877 19.5304 4.32132 19.3988 4.61015C19.2671 4.89898 19.0783 5.15816 18.8437 5.37201Z" stroke="#B2B7BB" stroke-width="1.36607" stroke-linecap="round" stroke-linejoin="round"/>
<path d="M9.48158 3.18628H4.92801C3.96186 3.18628 3.03535 3.57007 2.35218 4.25324C1.66901 4.93642 1.28516 5.86299 1.28516 6.82914V15.9363C1.28516 16.9025 1.66901 17.829 2.35218 18.5121C3.03535 19.1954 3.96186 19.5791 4.92801 19.5791H14.9459C16.9585 19.5791 17.678 17.9399 17.678 15.9363V11.3827" stroke="#B2B7BB" stroke-width="1.36607" stroke-linecap="round" stroke-linejoin="round"/>
</g>
<defs>
<clipPath id="clip0_149_69">
<rect width="21.8571" height="21.8571" fill="white" transform="translate(0.0712891 0.0715332)"/>
</clipPath>
</defs>
</svg>
