<svg width="15" height="15" viewBox="0 0 15 15" fill="none" xmlns="http://www.w3.org/2000/svg">
<path d="M12.3353 4.49967C13.3478 4.49967 14.1686 3.67886 14.1686 2.66634C14.1686 1.65382 13.3478 0.833008 12.3353 0.833008C11.3228 0.833008 10.502 1.65382 10.502 2.66634C10.502 3.67886 11.3228 4.49967 12.3353 4.49967Z" fill="#FF0000"/>
<path d="M11.6959 5.43301C10.6493 5.20634 9.79594 4.35301 9.56927 3.30634C9.4826 2.89967 9.47594 2.50634 9.54927 2.13301C9.63594 1.71967 9.32927 1.33301 8.90261 1.33301H3.66927C1.82927 1.33301 0.335938 2.82634 0.335938 4.66634V9.29967C0.335938 11.1397 1.82927 12.633 3.66927 12.633H4.66927C4.85594 12.633 5.09594 12.753 5.2026 12.8997L6.2026 14.2263C6.6426 14.813 7.3626 14.813 7.8026 14.2263L8.8026 12.8997C8.92927 12.733 9.1226 12.633 9.33594 12.633H10.3426C12.1826 12.633 13.6693 11.1463 13.6693 9.30634V6.09967C13.6693 5.67967 13.2826 5.37301 12.8693 5.45301C12.4959 5.51967 12.1026 5.51967 11.6959 5.43301ZM4.33594 7.99967C3.9626 7.99967 3.66927 7.69967 3.66927 7.33301C3.66927 6.96634 3.9626 6.66634 4.33594 6.66634C4.7026 6.66634 5.0026 6.96634 5.0026 7.33301C5.0026 7.69967 4.70927 7.99967 4.33594 7.99967ZM7.0026 7.99967C6.62927 7.99967 6.33594 7.69967 6.33594 7.33301C6.33594 6.96634 6.62927 6.66634 7.0026 6.66634C7.36927 6.66634 7.66927 6.96634 7.66927 7.33301C7.66927 7.69967 7.37594 7.99967 7.0026 7.99967ZM9.66927 7.99967C9.29594 7.99967 9.0026 7.69967 9.0026 7.33301C9.0026 6.96634 9.29594 6.66634 9.66927 6.66634C10.0359 6.66634 10.3359 6.96634 10.3359 7.33301C10.3359 7.69967 10.0426 7.99967 9.66927 7.99967Z" fill="black"/>
</svg>
