<svg width="16" height="16" viewBox="0 0 16 16" fill="none" xmlns="http://www.w3.org/2000/svg">
<path d="M8.02018 9.99992V9.33325C8.02018 8.66658 8.02018 8.33325 8.68685 7.99992C9.35352 7.66658 10.0202 7.33325 10.0202 6.33325C10.0202 5.66659 9.35352 4.66659 8.02018 4.66659C6.68685 4.66659 6.02018 5.50934 6.02018 6.66658M8.02018 10.6666V11.9999M1.35352 2.66045C1.35352 1.92746 1.95232 1.33325 2.68071 1.33325H13.3597C14.0926 1.33325 14.6868 1.93206 14.6868 2.66045V13.3394C14.6868 14.0724 14.088 14.6666 13.3597 14.6666H2.68071C1.94772 14.6666 1.35352 14.0678 1.35352 13.3394V2.66045Z" stroke="black" stroke-width="0.75"/>
</svg>
