<svg width="15" height="13" viewBox="0 0 15 13" fill="none" xmlns="http://www.w3.org/2000/svg">
<path d="M1.85286 4.37492H13.1862M4.6862 4.37492V12.1666M3.4112 12.1666H11.6279C12.4213 12.1666 12.818 12.1666 13.121 12.0122C13.3876 11.8764 13.6043 11.6596 13.7401 11.3931C13.8945 11.0901 13.8945 10.6933 13.8945 9.89992V3.09992C13.8945 2.30651 13.8945 1.90981 13.7401 1.60677C13.6043 1.3402 13.3876 1.12348 13.121 0.987661C12.818 0.833252 12.4213 0.833252 11.6279 0.833252H3.4112C2.61779 0.833252 2.22108 0.833252 1.91805 0.987661C1.65148 1.12348 1.43476 1.3402 1.29894 1.60677C1.14453 1.90981 1.14453 2.30651 1.14453 3.09992V9.89992C1.14453 10.6933 1.14453 11.0901 1.29894 11.3931C1.43476 11.6596 1.65148 11.8764 1.91805 12.0122C2.22108 12.1666 2.61779 12.1666 3.4112 12.1666Z" stroke="black" stroke-width="0.8" stroke-linecap="round" stroke-linejoin="round"/>
</svg>
